<?xml version="1.0" encoding="utf-8"?>
<!-- Generator: Adobe Illustrator 24.1.2, SVG Export Plug-In . SVG Version: 6.00 Build 0)  -->
<svg version="1.1" id="Слой_1" xmlns="http://www.w3.org/2000/svg" xmlns:xlink="http://www.w3.org/1999/xlink" x="0px" y="0px"
	 viewBox="0 0 104.28 53.58" style="enable-background:new 0 0 104.28 53.58;" xml:space="preserve">
<style type="text/css">
	.st0{fill:#E62386;}
	.st1{fill:#E84922;}
	.st2{fill:#F1851C;}
	.st3{fill:#842A86;}
	.st4{fill:#C21729;}
	.st5{fill:#FFFFFF;}
</style>
<g>
	<circle class="st0" cx="25.54" cy="11.74" r="11.74"/>
	<circle class="st1" cx="52.45" cy="11.74" r="11.74"/>
	<circle class="st2" cx="79.09" cy="11.74" r="11.74"/>
	<path class="st0" d="M38.56,30.7c0,0-15.4-10.59-31.79,4.21c0,0-6.2,6.33-6.77,13.56c0,0-0.35,5.06,6.55,5.06l26.84,0.03
		L38.56,30.7z"/>
	<path class="st2" d="M65.7,30.98c0,0,15.43-11.06,31.81,3.84c0,0,6.2,6.37,6.77,13.65c0,0,0.35,5.1-6.55,5.1l-26.12-0.03
		L65.7,30.98z"/>
	<path class="st1" d="M25.45,53.55c0-14.61,11.84-26.45,26.45-26.45s26.45,11.84,26.45,26.45"/>
	<path class="st3" d="M38.56,30.7c-14.64,8.24-13.1,22.86-13.1,22.86l13.1,0.08l13.06-0.1C51.63,53.55,53.2,38.94,38.56,30.7z"/>
	<path class="st4" d="M65.69,30.88c-14.64,8.19-13.03,22.66-13.03,22.66h13.05h13.05C78.77,53.55,80.32,39.07,65.69,30.88z"/>
	<g>
		<g>
			<path class="st5" d="M23.33,13.71c0.47,0.18,2.06,0.99,2.58,0.99c0.89,0,1.33-0.28,1.33-0.83c0-0.19-0.09-0.37-0.27-0.53
				c-0.18-0.17-0.6-0.37-1.28-0.61c-0.68-0.24-1.61-0.46-2.01-0.67c-0.4-0.21-0.74-0.5-1.02-0.88s-0.43-0.87-0.43-1.47
				c0-0.77,0.31-1.4,0.94-1.87s1.47-0.71,2.52-0.71c0.97,0,1.99,0.23,3.07,0.7l-0.86,1.41c-1.2-0.54-1.3-0.45-2.02-0.45
				c-0.41,0-0.73,0.07-0.97,0.2c-0.24,0.14-0.36,0.31-0.36,0.54c0,0.17,0.09,0.34,0.26,0.49c0.17,0.15,0.59,0.35,1.26,0.6
				s1.21,0.47,1.61,0.68s0.75,0.51,1.04,0.89s0.44,0.87,0.44,1.45c0,0.83-0.32,1.5-0.96,1.99c-0.64,0.49-1.48,0.74-2.52,0.74
				c-1.12,0-2.7-0.83-3.75-1.41"/>
		</g>
	</g>
	<path class="st5" d="M56.91,7.15v2.48l-3.2,0.06l0.04,6.68h-2.54l0-6.7L48,9.63V7.15H56.91z"/>
	<path class="st5" d="M79.09,10.55l2.97-3.43h2v9.25h-2.3v-5.77l-2.5,2.9h-0.35l-2.5-2.9v5.77h-2.3V7.12h2L79.09,10.55z"/>
	<path class="st5" d="M18.01,38.3v7.52h-1.79V38.3H18.01z"/>
	<path class="st5" d="M41.43,45.96c-0.79,0.05-0.61,0.05-1.19,0.05c-0.53,0-0.31-0.2-0.41-0.6c-0.58,0.4-1.17,0.6-1.76,0.6
		c-0.41,0-0.77-0.13-1.06-0.39c-0.29-0.26-0.43-0.57-0.43-0.91c0-0.46,0.15-0.84,0.45-1.12c0.3-0.29,1.21-0.65,2.72-1.1
		c0.04-0.59-0.68-0.57-0.95-0.57c-0.43,0-0.55-0.09-1.14,0.51l-0.61-1.34c0.7-0.43,1.28-0.61,2.12-0.61c1.51,0,2.26,0.54,2.26,1.62
		v2.43c0,0.25,0-0.18,0,0.4 M39.74,44.61v-1.29c-0.56,0.2-0.95,0.37-1.15,0.53c-0.21,0.16-0.31,0.36-0.31,0.6
		c0,0.16,0.05,0.29,0.16,0.4c0.11,0.11,0.23,0.17,0.38,0.17C39.13,45.02,39.44,44.88,39.74,44.61z"/>
	<path class="st5" d="M64.42,38.25v2.83c0.48-0.27,0.97-0.4,1.48-0.4c0.83,0,1.51,0.25,2.03,0.76c0.52,0.51,0.78,1.17,0.78,1.97
		c0,0.81-0.25,1.47-0.75,1.99c-0.5,0.52-1.15,0.77-1.93,0.77c-0.57,0-1.11-0.17-1.61-0.5v0.4h-1.81v-7.82H64.42z M64.42,42.16v1.75
		c0.37,0.3,0.88,0.62,1.23,0.62c0.43,0,0.76,0.04,1.01-0.26c0.25-0.3,0.22-0.37,0.22-0.89c0-0.51-0.13-0.9-0.39-1.18
		s-0.6-0.42-1.02-0.42C65.14,41.79,64.79,41.91,64.42,42.16z"/>
	<path class="st5" d="M91.07,40.93v1.15c-0.67-0.38-1.28-0.57-1.85-0.57c-0.42,0-0.63,0.13-0.63,0.4c0,0.07,0.04,0.14,0.13,0.2
		c0.09,0.07,0.43,0.21,1.01,0.43c0.59,0.22,1,0.47,1.25,0.75c0.24,0.28,0.36,0.59,0.36,0.93c0,0.53-0.2,0.95-0.59,1.24
		c-0.39,0.29-0.95,0.44-1.68,0.44c-0.74,0-1.41-0.13-1.99-0.38v-1.14c0.71,0.29,1.31,0.44,1.79,0.44c0.56,0,0.85-0.13,0.85-0.38
		c0-0.1-0.05-0.19-0.16-0.28c-0.1-0.09-0.45-0.24-1.05-0.45c-0.59-0.22-1-0.45-1.22-0.71s-0.33-0.55-0.33-0.86
		c0-0.47,0.21-0.85,0.63-1.14c0.42-0.29,0.98-0.44,1.67-0.44C89.94,40.55,90.54,40.67,91.07,40.93z"/>
</g>
</svg>
